<svg xmlns="http://www.w3.org/2000/svg" width="106" height="20" viewBox="0 0 106 20">
  <path fill="#3C4858" fill-rule="evenodd" d="M128.592,38.136 C128.568,37.32 128.568,35.832 128.808,34.392 L128.088,34.2 L127.752,35.064 C127.344,34.704 126.288,34.416 125.256,34.416 C122.976,34.416 121.128,35.688 121.128,37.992 C121.128,39.264 121.704,40.224 123.216,40.872 C124.104,41.232 125.424,41.76 126.144,42.12 C126.576,42.36 126.816,42.696 126.816,43.152 C126.816,43.944 126.192,44.472 125.088,44.472 C123.936,44.472 122.976,43.92 122.424,42.96 C121.992,42.264 121.848,41.472 121.776,40.992 L121.104,40.992 C121.128,42.504 121.08,44.04 121.056,44.688 C121.824,45 123.336,45.312 124.632,45.312 C126.96,45.312 129.48,44.376 129.48,41.592 C129.48,40.512 129.024,39.672 127.944,39.12 C127.104,38.664 124.92,38.016 124.176,37.584 C123.768,37.32 123.552,37.056 123.552,36.528 C123.552,35.808 124.056,35.232 125.064,35.232 C126.648,35.232 127.752,36.792 127.896,38.28 L128.592,38.136 Z M135.624,34.776 C135.624,33.6 135.696,31.56 135.744,30.936 L135.504,30.864 C134.928,31.272 133.704,31.752 132.144,32.112 C132.144,32.952 132.12,33.984 132.12,34.776 L130.776,34.776 L130.656,35.592 L132.096,35.736 C132.096,37.488 132,41.232 132.024,42.912 C132.024,43.584 132.168,44.064 132.48,44.448 C132.936,45.024 133.824,45.336 134.928,45.336 C136.824,45.336 138.192,44.472 138.696,43.2 L138.384,42.264 L138.072,42.264 C137.88,43.104 137.304,44.16 136.344,44.16 C135.96,44.16 135.72,43.92 135.648,43.392 C135.552,42.648 135.552,41.4 135.552,39.624 C135.552,37.848 135.576,36.6 135.6,35.76 L138.36,35.592 L138.408,34.776 L135.624,34.776 Z M150.864,42.36 L151.584,42.672 C151.176,44.568 150.072,45.336 148.44,45.336 C147.048,45.336 146.352,44.712 146.088,43.656 C145.032,44.736 143.88,45.336 142.704,45.336 C140.76,45.336 139.632,44.112 139.632,42.264 C139.632,41.136 140.136,40.416 141,40.08 C142.608,39.432 144.864,38.808 146.064,38.064 L146.064,37.128 C146.064,35.952 145.632,35.184 144.696,35.184 C143.664,35.184 143.16,35.784 143.16,36.792 C143.16,37.056 143.184,37.32 143.232,37.56 C143.28,37.824 143.184,38.064 142.968,38.232 C142.68,38.448 142.152,38.592 141.72,38.592 C140.928,38.592 140.16,38.256 140.16,37.296 C140.16,35.952 142.176,34.416 145.224,34.416 C147.672,34.416 148.704,35.376 149.088,35.952 C149.304,36.264 149.424,36.696 149.424,37.104 L149.424,43.008 C149.424,43.752 149.616,43.896 149.904,43.896 C150.24,43.896 150.648,43.296 150.864,42.36 Z M146.04,41.544 L146.064,38.904 C145.584,39.168 144.792,39.552 144.192,39.888 C143.616,40.248 143.232,40.632 143.232,41.688 C143.232,42.648 143.64,43.632 144.6,43.632 C145.344,43.632 145.704,43.08 145.896,42.648 C145.992,42.408 146.04,42 146.04,41.544 Z M156.72,34.776 C156.72,33.6 156.792,31.56 156.84,30.936 L156.6,30.864 C156.024,31.272 154.8,31.752 153.24,32.112 C153.24,32.952 153.216,33.984 153.216,34.776 L151.872,34.776 L151.752,35.592 L153.192,35.736 C153.192,37.488 153.096,41.232 153.12,42.912 C153.12,43.584 153.264,44.064 153.576,44.448 C154.032,45.024 154.92,45.336 156.024,45.336 C157.92,45.336 159.288,44.472 159.792,43.2 L159.48,42.264 L159.168,42.264 C158.976,43.104 158.4,44.16 157.44,44.16 C157.056,44.16 156.816,43.92 156.744,43.392 C156.648,42.648 156.648,41.4 156.648,39.624 C156.648,37.848 156.672,36.6 156.696,35.76 L159.456,35.592 L159.504,34.776 L156.72,34.776 Z M171.96,42.36 L172.68,42.672 C172.272,44.568 171.168,45.336 169.536,45.336 C168.144,45.336 167.448,44.712 167.184,43.656 C166.128,44.736 164.976,45.336 163.8,45.336 C161.856,45.336 160.728,44.112 160.728,42.264 C160.728,41.136 161.232,40.416 162.096,40.08 C163.704,39.432 165.96,38.808 167.16,38.064 L167.16,37.128 C167.16,35.952 166.728,35.184 165.792,35.184 C164.76,35.184 164.256,35.784 164.256,36.792 C164.256,37.056 164.28,37.32 164.328,37.56 C164.376,37.824 164.28,38.064 164.064,38.232 C163.776,38.448 163.248,38.592 162.816,38.592 C162.024,38.592 161.256,38.256 161.256,37.296 C161.256,35.952 163.272,34.416 166.32,34.416 C168.768,34.416 169.8,35.376 170.184,35.952 C170.4,36.264 170.52,36.696 170.52,37.104 L170.52,43.008 C170.52,43.752 170.712,43.896 171,43.896 C171.336,43.896 171.744,43.296 171.96,42.36 Z M167.136,41.544 L167.16,38.904 C166.68,39.168 165.888,39.552 165.288,39.888 C164.712,40.248 164.328,40.632 164.328,41.688 C164.328,42.648 164.736,43.632 165.696,43.632 C166.44,43.632 166.8,43.08 166.992,42.648 C167.088,42.408 167.136,42 167.136,41.544 Z M174.48,40.848 C174.48,42.024 174.456,42.984 174.408,43.584 C174.384,44.208 174.24,44.28 173.064,44.328 L173.064,45.072 C173.76,45.072 174.84,45 176.232,45 C177.384,45 178.632,45.072 179.112,45.072 L179.208,44.328 C178.272,44.256 178.08,44.16 178.056,43.68 C177.984,43.032 177.984,42.36 177.984,41.376 L177.984,38.256 C177.984,37.8 178.056,37.44 178.272,37.104 C178.704,36.408 179.4,35.976 180.072,35.976 C180.6,35.976 180.936,36.24 181.104,36.6 C181.248,36.888 181.248,37.152 181.248,38.28 L181.248,40.704 C181.248,42.048 181.224,42.888 181.176,43.584 C181.152,44.16 180.912,44.256 180.072,44.328 L180.072,45.072 C180.552,45.072 181.464,45 182.88,45 C184.08,45 185.424,45.072 185.928,45.072 L185.976,44.328 C185.016,44.256 184.824,44.16 184.776,43.68 C184.752,43.08 184.752,42.336 184.752,41.352 L184.752,38.16 C184.752,37.752 184.824,37.44 184.992,37.128 C185.4,36.408 186.096,35.976 186.768,35.976 C187.344,35.976 187.68,36.24 187.872,36.672 C187.992,36.96 188.04,37.2 188.016,40.488 C188.016,42.312 187.992,43.128 187.944,43.68 C187.896,44.136 187.704,44.28 186.792,44.352 L186.792,45.096 C187.368,45.096 188.352,45 189.72,45 C191.016,45 191.928,45.096 192.84,45.096 L192.864,44.352 C191.616,44.208 191.52,44.184 191.52,43.656 L191.52,37.32 C191.52,36.744 191.424,36.216 191.112,35.688 C190.776,35.112 189.96,34.416 188.592,34.416 C186.72,34.416 185.52,35.472 184.632,36.192 C184.536,35.928 184.416,35.616 184.176,35.352 C183.864,34.944 183.216,34.416 181.944,34.416 C180.096,34.416 178.848,35.424 178.032,36.144 C177.984,35.736 177.888,34.896 177.792,34.512 C176.328,34.752 174.648,34.848 173.16,34.848 L173.112,35.592 C174.264,35.592 174.384,35.712 174.408,36 C174.456,36.672 174.48,37.56 174.48,38.712 L174.48,40.848 Z M196.968,29.544 C195.888,29.544 195.168,30.312 195.168,31.368 C195.168,32.376 195.912,33.024 196.896,33.024 C197.976,33.024 198.744,32.352 198.744,31.344 C198.744,30.192 198.072,29.544 196.968,29.544 Z M200.256,44.328 C199.152,44.256 198.96,44.136 198.936,43.56 C198.888,43.008 198.864,42.456 198.864,41.112 L198.864,38.256 C198.864,35.952 198.912,34.992 198.936,34.416 C197.4,34.704 195.6,34.8 194.016,34.872 L194.016,35.64 C195.12,35.592 195.288,35.688 195.336,36.096 C195.36,36.48 195.36,37.392 195.36,38.448 L195.36,41.064 C195.36,42.36 195.336,43.152 195.288,43.632 C195.264,44.112 195.096,44.304 193.848,44.328 L193.848,45.072 C194.592,45.072 195.288,45 196.896,45 C198.384,45 199.368,45.072 200.256,45.072 L200.256,44.328 Z M210.888,41.52 C210.24,43.224 209.4,43.968 208.032,43.968 C206.952,43.968 206.232,43.464 205.752,42.456 C205.392,41.736 205.248,40.608 205.248,39.576 C205.248,37.032 205.968,35.208 207.312,35.208 C208.224,35.208 208.608,35.784 208.608,36.864 C208.608,37.2 208.56,37.464 208.488,37.776 C208.44,38.064 208.536,38.328 208.776,38.496 C208.992,38.64 209.376,38.712 209.664,38.712 C210.432,38.712 211.464,38.304 211.464,37.104 C211.464,35.4 209.712,34.416 207.384,34.416 C203.52,34.416 201.48,36.84 201.48,40.056 C201.48,41.448 201.792,42.744 202.512,43.632 C203.448,44.76 204.792,45.336 206.904,45.336 C209.352,45.336 210.84,44.232 211.608,41.904 L210.888,41.52 Z" transform="translate(-121 -29)"/>
</svg>
