<?xml version="1.0" standalone="no"?>
<!DOCTYPE svg PUBLIC "-//W3C//DTD SVG 20010904//EN"
 "http://www.w3.org/TR/2001/REC-SVG-20010904/DTD/svg10.dtd">
<svg version="1.0" xmlns="http://www.w3.org/2000/svg"
 width="1024.000000pt" height="1024.000000pt" viewBox="0 0 1024.000000 1024.000000"
 preserveAspectRatio="xMidYMid meet">
<metadata>
Created by potrace 1.11, written by Peter Selinger 2001-2013
</metadata>
<g transform="translate(0.000000,1024.000000) scale(0.100000,-0.100000)"
fill="#000000" stroke="none">
<path d="M6482 9934 c-34 -7 -76 -19 -94 -27 -18 -9 -78 -32 -133 -52 -169
-63 -208 -78 -595 -225 -206 -79 -397 -151 -425 -161 -27 -9 -104 -38 -170
-64 -66 -25 -192 -73 -280 -106 -88 -32 -169 -63 -180 -68 -11 -5 -231 -89
-490 -186 -258 -98 -497 -188 -530 -200 -33 -13 -134 -52 -225 -86 -209 -78
-211 -79 -660 -248 -512 -194 -494 -185 -567 -257 -223 -219 -165 -600 112
-737 90 -45 201 -51 310 -19 33 10 218 78 250 92 11 4 211 81 445 170 234 90
439 169 455 176 17 7 370 146 785 308 415 162 836 327 935 366 418 165 516
202 520 198 2 -2 -15 -76 -39 -164 -42 -153 -104 -385 -186 -694 -21 -80 -55
-206 -75 -280 -20 -74 -90 -335 -155 -580 -65 -245 -151 -564 -190 -710 -39
-146 -82 -305 -95 -355 -14 -49 -58 -215 -99 -368 -40 -153 -76 -279 -77 -281
-2 -1 -76 -28 -164 -60 -218 -79 -314 -114 -491 -180 -84 -31 -156 -56 -160
-56 -5 0 -21 -6 -35 -14 -14 -7 -39 -16 -55 -20 -16 -4 -42 -14 -59 -21 -16
-8 -68 -27 -115 -44 -47 -16 -123 -44 -170 -61 -47 -17 -123 -45 -170 -61 -47
-17 -103 -41 -126 -54 -157 -91 -250 -326 -200 -510 51 -192 201 -321 383
-330 80 -4 116 5 298 70 575 205 740 264 741 262 0 -1 -28 -105 -63 -232 -139
-501 -181 -651 -188 -680 -5 -16 -10 -34 -11 -40 -2 -5 -17 -57 -33 -115 -16
-58 -59 -213 -96 -345 -71 -257 -173 -622 -235 -850 -21 -77 -77 -279 -125
-450 -230 -830 -225 -808 -200 -928 20 -94 59 -163 136 -239 57 -57 78 -70
136 -88 200 -64 400 20 502 210 33 62 39 83 291 1010 99 366 194 712 210 770
54 199 71 261 75 278 5 24 102 376 120 437 8 28 43 158 79 290 56 207 85 316
91 335 1 3 5 19 10 35 4 17 23 86 42 155 19 69 45 168 59 220 28 106 67 249
90 325 8 28 16 59 19 70 4 18 20 79 30 115 2 8 10 35 17 59 l13 43 110 40 c61
22 119 44 130 48 11 5 63 24 115 43 113 40 537 195 668 243 150 56 270 99 392
143 136 50 163 65 223 130 82 88 128 212 120 325 -6 84 -48 210 -86 254 -145
170 -291 217 -478 153 -128 -45 -342 -121 -564 -201 -234 -84 -309 -110 -312
-106 -1 1 22 92 53 202 30 109 57 206 59 214 1 8 31 116 64 239 34 123 68 247
76 275 13 48 204 746 370 1351 196 714 226 821 230 840 3 11 20 76 40 145 106
376 115 418 110 502 -4 68 -10 93 -44 162 -47 96 -118 172 -200 213 -31 15
-58 28 -61 29 -3 0 -21 4 -40 8 -62 12 -107 12 -168 0z"/>
</g>
</svg>
