<svg viewBox="0 0 595.3 549.9" fill="#465058">
	<path d="M586.6,160.6c-0.8-1.6-4.9-8.4-13.4-5.9
		c-26.7,6.8-34.8,10.3-58.3,19.2c-9.2,3.5-20.7,9.8-29,14.2c-66.6,35.5-114.1,83.1-126.7,97.4c10.1-18.6,34.1-64.4,49.5-85.4
		c1.2-1.9,5.5-6.6,2.3-12.9c-1.6-2.6-1.8-4.1-7.7-3.9c-18.2,3.4-83,27.8-83,27.8s51.5-178.3,53.5-186.6c2.1-9.5-6.9-14.5-8.8-15.4
		c-7.9-3.2-14.9,1.4-17.8,7.8c0,0-50.3,179-58.3,205c-13,4.6-17.2,6.2-28.2,10.2c-5.7,2-16.7,5.3-19.2,6.4c-8,3.5-10.3,10.4-9.3,15.8
		c1.2,6.4,9.2,12.4,16.5,10.7c3.1-0.6,30.4-10.4,30.4-10.4c-3,12.2-79.7,271.4-79.7,271.4c-1.4,7.6,3,13.9,8.8,16
		c6.3,2.3,15.3-0.6,18-8.8c0,0,41.7-162.2,84.4-290.4c0,0,54.9-20.1,55-20.1c-11.4,18.9-21.5,39.1-30.9,60.6
		c-5.7,12.8-8.6,18.4-13.1,34.8c-1.3,6.4,1.1,11.9,5.9,15.1c6.5,4.2,13,1.5,15.8-0.5c10.1-9.3,13.8-15.7,22.6-24.8
		c2.4-2.5,49.8-59.8,136.3-102.8c25-12.5,49.7-22.3,77.3-29.2C588.2,173.1,588.7,164.8,586.6,160.6z"/>
	<path d="M218,249.7c-6.8-1.9-15,1.7-16.8,7.4l-35.7,120.1
		c-1.4,7.9,3.9,13.2,8.3,15.2c4.2,1.7,14.2,2.2,18.2-7.7l35.6-119.6C228.9,259.9,224.9,251.6,218,249.7z"/>
	<path d="M186.7,271c-4.2-5.7-9.9-7.6-15.1-6.3l-31.2,10.3
		l33.5-112.6c1.1-5.1-1.1-9.6-4.3-12.6c-4.1-3.6-9.3-4.8-14.7-2.9c-7.4,2.6-138.3,48.2-138.3,48.2c-5.3,1.9-8.9,6.9-8.9,12.7
		c0,7.6,6.2,13.7,13.9,13.7c1.5,0,3.1-0.3,4.2-0.6c6.6-1.7,113.9-40.7,113.9-40.7l-30.8,106L58.9,303c-7.1,2.5-10.3,11.2-8,17.2
		c3.8,9.6,12.7,9.8,16.9,8.7l30.4-10L66.4,424.6c-2.3,9.6,5.3,15,8,16c10.4,3.8,17.3-3.9,18.8-8.9l36.8-124.4l51.4-17.3
		C181.4,290,193.4,283.8,186.7,271z"/>
</svg>
