<?xml version="1.0" encoding="utf-8"?><svg xmlns="http://www.w3.org/2000/svg" xmlns:xlink="http://www.w3.org/1999/xlink"><symbol viewBox="0 0 512 512" id="codepen"><path d="M427 201.9c-.6-4.2-2.9-8-6.4-10.3L264.2 87.3c-4.9-3.3-11.4-3.3-16.3 0L91.4 191.6c-4 2.7-6.5 7.4-6.5 12.2v104.3c0 4.8 2.5 9.6 6.5 12.2l156.4 104.3c4.9 3.3 11.4 3.3 16.3 0l156.5-104.2c4-2.6 6.6-7.4 6.6-12.2V203.9c-.1-.7-.1-1.3-.2-2 0-.2.1.7 0 0zm-156.3-74.8l115.2 76.8-51.5 34.4-63.8-42.7v-68.5zm-29.4 0v68.6l-63.8 42.7L126 204l115.3-76.9zm-127 104.3l36.8 24.6-36.8 24.6v-49.2zm127 153.5l-115.2-76.8 51.5-34.4 63.8 42.6v68.6zm14.7-94.1L204 256l52-34.8 52 34.8-52 34.8zm14.7 94.1v-68.6l63.8-42.6 51.5 34.4-115.3 76.8zm127-104.3L360.9 256l36.8-24.6v49.2z"/></symbol><symbol viewBox="0 0 512 512" id="dribbble"><path d="M256 68.4c-103.6 0-187.6 84-187.6 187.6s84 187.6 187.6 187.6 187.6-84 187.6-187.6S359.6 68.4 256 68.4zm154.6 178.9c-40.3-6.6-77.3-7-111-1.1-3.8-8.8-7.8-17.6-12-26.3 36.1-15.6 65.1-36.9 86.7-63.8 21.1 24.9 34.3 56.5 36.3 91.2zm-60.1-113.9c-18.8 24.3-44.8 43.5-78 57.5-15.9-29.1-34-57.5-54.5-85 12.2-3.1 24.9-4.9 38-4.9 35.6 0 68.3 12.2 94.5 32.4zm-164.4-15.5c20.8 27.2 39.3 55.3 55.3 84.1-38 11.2-83.4 16.9-135.8 17.3 10.8-44.3 40.7-81.2 80.5-101.4zM101 256c0-1.3.2-2.7.2-4 60.2-.1 112.1-7 155.6-20.7 3.6 7.4 7.1 14.9 10.5 22.4-52.8 16.5-96.4 50.4-130.3 101.3-22.5-26.8-36-61.4-36-99zm59.9 122.1c30.8-48.3 70.1-79.7 118.8-94.2 14.5 37.8 25.2 76.8 31.9 116.6-17.3 6.7-36 10.5-55.6 10.5-35.9 0-68.8-12.4-95.1-32.9zm181.1 6.7C335.1 348 325.1 312 312 277c29.3-4.1 61.6-3.1 96.9 3.1-6.8 43.5-31.7 81.2-66.9 104.7z"/></symbol><symbol viewBox="0 0 595.3 549.9" fill="#465058" id="fitz"><path d="M586.6 160.6c-.8-1.6-4.9-8.4-13.4-5.9-26.7 6.8-34.8 10.3-58.3 19.2-9.2 3.5-20.7 9.8-29 14.2-66.6 35.5-114.1 83.1-126.7 97.4 10.1-18.6 34.1-64.4 49.5-85.4 1.2-1.9 5.5-6.6 2.3-12.9-1.6-2.6-1.8-4.1-7.7-3.9-18.2 3.4-83 27.8-83 27.8s51.5-178.3 53.5-186.6c2.1-9.5-6.9-14.5-8.8-15.4-7.9-3.2-14.9 1.4-17.8 7.8 0 0-50.3 179-58.3 205-13 4.6-17.2 6.2-28.2 10.2-5.7 2-16.7 5.3-19.2 6.4-8 3.5-10.3 10.4-9.3 15.8 1.2 6.4 9.2 12.4 16.5 10.7 3.1-.6 30.4-10.4 30.4-10.4-3 12.2-79.7 271.4-79.7 271.4-1.4 7.6 3 13.9 8.8 16 6.3 2.3 15.3-.6 18-8.8 0 0 41.7-162.2 84.4-290.4 0 0 54.9-20.1 55-20.1-11.4 18.9-21.5 39.1-30.9 60.6-5.7 12.8-8.6 18.4-13.1 34.8-1.3 6.4 1.1 11.9 5.9 15.1 6.5 4.2 13 1.5 15.8-.5 10.1-9.3 13.8-15.7 22.6-24.8 2.4-2.5 49.8-59.8 136.3-102.8 25-12.5 49.7-22.3 77.3-29.2 8.7-2.8 9.2-11.1 7.1-15.3zM218 249.7c-6.8-1.9-15 1.7-16.8 7.4l-35.7 120.1c-1.4 7.9 3.9 13.2 8.3 15.2 4.2 1.7 14.2 2.2 18.2-7.7l35.6-119.6c1.3-5.2-2.7-13.5-9.6-15.4zM186.7 271c-4.2-5.7-9.9-7.6-15.1-6.3L140.4 275l33.5-112.6c1.1-5.1-1.1-9.6-4.3-12.6-4.1-3.6-9.3-4.8-14.7-2.9-7.4 2.6-138.3 48.2-138.3 48.2-5.3 1.9-8.9 6.9-8.9 12.7 0 7.6 6.2 13.7 13.9 13.7 1.5 0 3.1-.3 4.2-.6 6.6-1.7 113.9-40.7 113.9-40.7l-30.8 106-50 16.8c-7.1 2.5-10.3 11.2-8 17.2 3.8 9.6 12.7 9.8 16.9 8.7l30.4-10-31.8 105.7c-2.3 9.6 5.3 15 8 16 10.4 3.8 17.3-3.9 18.8-8.9L130 307.3l51.4-17.3s12-6.2 5.3-19z"/></symbol><symbol viewBox="0 0 512 512" id="github"><path d="M256 70.7c-102.6 0-185.9 83.2-185.9 185.9 0 82.1 53.3 151.8 127.1 176.4 9.3 1.7 12.3-4 12.3-8.9v-34.7c-51.7 11.3-62.5-21.9-62.5-21.9-8.4-21.5-20.6-27.2-20.6-27.2-16.9-11.5 1.3-11.3 1.3-11.3 18.7 1.3 28.5 19.2 28.5 19.2 16.6 28.4 43.5 20.2 54.1 15.4 1.7-12 6.5-20.2 11.8-24.9-41.3-4.7-84.7-20.6-84.7-91.9 0-20.3 7.3-36.9 19.2-49.9-1.9-4.7-8.3-23.6 1.8-49.2 0 0 15.6-5 51.1 19.1 14.8-4.1 30.7-6.2 46.5-6.3 15.8.1 31.7 2.1 46.6 6.3 35.5-24 51.1-19.1 51.1-19.1 10.1 25.6 3.8 44.5 1.8 49.2 11.9 13 19.1 29.6 19.1 49.9 0 71.4-43.5 87.1-84.9 91.7 6.7 5.8 12.8 17.1 12.8 34.4v51c0 4.9 3 10.7 12.4 8.9 73.8-24.6 127-94.3 127-176.4 0-102.5-83.3-185.7-185.9-185.7z"/></symbol><symbol viewBox="0 0 512 512" id="instagram"><path d="M256 109.3c47.8 0 53.4.2 72.3 1 17.4.8 26.9 3.7 33.2 6.2 8.4 3.2 14.3 7.1 20.6 13.4 6.3 6.3 10.1 12.2 13.4 20.6 2.5 6.3 5.4 15.8 6.2 33.2.9 18.9 1 24.5 1 72.3s-.2 53.4-1 72.3c-.8 17.4-3.7 26.9-6.2 33.2-3.2 8.4-7.1 14.3-13.4 20.6-6.3 6.3-12.2 10.1-20.6 13.4-6.3 2.5-15.8 5.4-33.2 6.2-18.9.9-24.5 1-72.3 1s-53.4-.2-72.3-1c-17.4-.8-26.9-3.7-33.2-6.2-8.4-3.2-14.3-7.1-20.6-13.4-6.3-6.3-10.1-12.2-13.4-20.6-2.5-6.3-5.4-15.8-6.2-33.2-.9-18.9-1-24.5-1-72.3s.2-53.4 1-72.3c.8-17.4 3.7-26.9 6.2-33.2 3.2-8.4 7.1-14.3 13.4-20.6 6.3-6.3 12.2-10.1 20.6-13.4 6.3-2.5 15.8-5.4 33.2-6.2 18.9-.8 24.5-1 72.3-1m0-32.2c-48.6 0-54.7.2-73.8 1.1-19 .9-32.1 3.9-43.4 8.3-11.8 4.6-21.7 10.7-31.7 20.6C97.2 117 91 127 86.5 138.8c-4.4 11.4-7.4 24.4-8.3 43.4-.9 19.1-1.1 25.2-1.1 73.8 0 48.6.2 54.7 1.1 73.8.9 19 3.9 32.1 8.3 43.4 4.6 11.8 10.7 21.7 20.6 31.7 9.9 9.9 19.9 16.1 31.7 20.6 11.4 4.4 24.4 7.4 43.4 8.3 19.1.9 25.2 1.1 73.8 1.1s54.7-.2 73.8-1.1c19-.9 32.1-3.9 43.4-8.3 11.8-4.6 21.7-10.7 31.7-20.6 9.9-9.9 16.1-19.9 20.6-31.7 4.4-11.4 7.4-24.4 8.3-43.4.9-19.1 1.1-25.2 1.1-73.8s-.2-54.7-1.1-73.8c-.9-19-3.9-32.1-8.3-43.4-4.6-11.8-10.7-21.7-20.6-31.7C395 97.2 385 91 373.2 86.5c-11.4-4.4-24.4-7.4-43.4-8.3-19.1-.9-25.2-1.1-73.8-1.1z"/><path d="M256 164.1c-50.7 0-91.9 41.1-91.9 91.9s41.1 91.9 91.9 91.9 91.9-41.1 91.9-91.9-41.2-91.9-91.9-91.9zm0 151.5c-32.9 0-59.6-26.7-59.6-59.6s26.7-59.6 59.6-59.6 59.6 26.7 59.6 59.6-26.7 59.6-59.6 59.6z"/><circle cx="351.5" cy="160.5" r="21.5"/></symbol><symbol viewBox="0 0 512 512" id="linkedin"><path d="M186.4 142.4c0 19-15.3 34.5-34.2 34.5-18.9 0-34.2-15.4-34.2-34.5 0-19 15.3-34.5 34.2-34.5 18.9 0 34.2 15.5 34.2 34.5zm-5 58.9h-57.8v186.8h57.8V201.3zm92.4 0h-55.4v186.8h55.4v-98c0-26.3 12.1-41.9 35.2-41.9 21.3 0 31.5 15 31.5 41.9v98H398V269.8c0-50-28.3-74.2-68-74.2-39.6 0-56.3 30.9-56.3 30.9v-25.2h.1z"/></symbol><symbol viewBox="0 0 0 0" id="sprite"/><symbol viewBox="0 0 512 512" id="twitter"><path d="M419.6 168.6c-11.7 5.2-24.2 8.7-37.4 10.2 13.4-8.1 23.8-20.8 28.6-36-12.6 7.5-26.5 12.9-41.3 15.8C357.6 146 340.7 138 322 138c-42 0-72.9 39.2-63.4 79.9-54.1-2.7-102.1-28.6-134.2-68-17 29.2-8.8 67.5 20.1 86.9-10.7-.3-20.7-3.3-29.5-8.1-.7 30.2 20.9 58.4 52.2 64.6-9.2 2.5-19.2 3.1-29.4 1.1 8.3 25.9 32.3 44.7 60.8 45.2-27.4 21.4-61.8 31-96.4 27 28.8 18.5 63 29.2 99.8 29.2 120.8 0 189.1-102.1 185-193.6 12.9-9.1 23.9-20.5 32.6-33.6z"/></symbol></svg>