<svg xmlns="http://www.w3.org/2000/svg" xmlns:xlink="http://www.w3.org/1999/xlink" version="1.1" x="0px" y="0px" width="662px" height="617px" viewBox="0 0 662 617" enable-background="new 0 0 662 617" xml:space="preserve"><style>.style0{fill:	#FFFFFF;}</style><g><path d="M311.882 284.47c-15.969 5.908-30.686 11.051-34.066 11.654c-5.502-2.994-13.875-2.512-15.611-7.336 c-2.184-2.725-2.266-6.707-2.16-11.881c1.354-4.863 6.715-9.09 9.695-10.49c2.744-1.295 14.883-5.02 21.371-7.318 c12.287-4.354 16.898-6.244 31.574-11.35c8.807-29.23 64.742-229.354 65.346-229.963c0.613-0.609 3.795-5.736 9.11-6.328 c1.986-1.34 5.863-0.164 9.423-0.07c2.877 2.9 5.3 7.9 8.2 10.828c0.502 7.7 4.904-2.613 2.8 5.6 c-3.596 13.998-53.543 183.939-59.254 206.936c0.719 0 1.4 0 2.2 0c-2.642 2 70.319-26.471 90.721-30.24 c2.844-0.32 6.8 1.4 8.6 4.318c3.804 6 2.4 7.5 1.1 9.721c-8.588 14.502-11.646 18.076-19.485 29.7 c-13.822 21.322-28.591 49.994-39.75 70.872c14.061-16.133 67.428-69.482 142.125-109.31c9.463-5.045 22.254-12.068 32.631-15.943 c26.196-9.785 35.344-13.686 65.254-21.439c1.801 2.2 12.9 5.1 14.7 7.209c0.069 4.67-6.545 13.553-7.232 16.9 c-30.889 7.682-58.68 18.865-86.729 32.787c-96.99 48.158-150.226 112.529-152.878 115.3 c-9.86 10.219-14.108 17.373-25.446 27.752c-3.3-0.834-17.941 1.352-19.312-0.471c-1.957-2.59-5.273-12.451-5.08-16.021 c5.186-18.422 8.379-24.557 14.801-39.057c10.641-24.043 20.658-44.742 33.475-65.883c-0.072 0-0.996-2.158-22.676 6.5 c-11.824 4.711-26.508 9.697-37.799 14.035c-48.002 143.676-89.742 305.43-94.734 325.576c-6.117-1.818-27.059-6.418-30.148-8.141 C222.642 588.9 308.7 298.1 311.9 284.47z" class="style0"/><path d="M75.896 367.458c-3.305-1.062-16.031-3.67-17.949-7.742c-2.15-2.062-2.994-7.498-1.926-11.787 c1.646-3.075 3.502-5.69 6.48-7.559c3.01-1.883-0.217-0.756 2.273-1.705c16.289-6.195 37.488-13.307 56.049-18.811 c0.975-3.382 20.111-75.111 34.559-118.806c-34.803 12.916-120.164 43.869-127.676 45.721c-3.297 0.457-10.084-1.357-12.83-2.203 c-3.135-0.967-1.922-3.076-3.375-4.688c-2.508-2.775-2.814-2.021-3.188-5.812c-0.146-1.477 1.125-4.5 1.125-4.5 c1.102-2.443 6.879-10.721 7.898-11.848c47.18-17.039 82.158-28.393 127.945-44.684c5.865-2.086 18.783-6.461 27.053-9.363 c5.297-1.857 6.941-0.674 11.4 1.055c1.049 0.4 3.5 2.4 4.3 3.119c0.855 0.7 1.9 2.1 2.6 3.1 c1.377 2.6 3.8 7 3 9.984c-2.283 8.936-5.424 17.08-7.018 23.82c-5.59 20.758-28.951 96.771-30.633 102.4 c3.713-1.101 10.107-3.404 20.941-6.779c8.268-2.578 9.555-3.484 14.086-4.811c2.496-0.727 7.3 1.3 12.6 2.6 c3.451 5.2 5.2 6.1 5.4 15.217c-1.447 2.979-2.238 7.465-5.074 9.711c-0.375 0.297-3.527 1.785-3.527 1.8 c-10.049 3.879-20.479 7.301-28.312 9.879c-1.189 0.394-27.559 8.859-27.559 8.859c-1.721 8.25-29.705 104.403-41.248 139.5 c-2.902 1.399-9.516 7.95-11.584 10.18c-6.164 0.158-8.021 0.227-11.914-1.392c-1.799-2.514-3.068-3.022-4.867-5.543 c-0.305-14.426-1.91-8.289-1.816-11.284c0.188-5.849 29.232-92.134 35.789-118.494" class="style0"/><path d="M224.308 287.214c1.002-2.52 4.686-5.906 8.725-7.209c4.072-1.16 8.916-0.053 13.6 2.4 c2.895 4 6.4 8 7 15.09c-1.104 5.156-2.467 8.4-2.885 9.844c-2.754 9.484-15.871 56.471-36.695 123.3 c-2.619 4.853-11.619 7.172-17.027 5.566c-4.506 0.254-13.301-5.971-12.529-15.439" class="style0"/></g><g><ellipse cx="22.9" cy="232.1" rx="15.6" ry="15.4" class="style0"/><path d="M194.009 177.882c0 8.508-7.002 15.406-15.639 15.406c-8.633 0-15.639-6.898-15.639-15.406 c0-8.506 7.006-15.402 15.639-15.402C185.962 162.5 194 169.4 194 177.882z" class="style0"/><path d="M86.226 352.972c0 8.509-7.002 15.4-15.639 15.4c-8.633 0-15.635-6.894-15.635-15.4 s7.002-15.41 15.635-15.41C78.179 337.6 86.2 344.5 86.2 352.972z" class="style0"/><path d="M210.462 310.556c0 8.509-7.002 15.4-15.639 15.4c-8.633 0-15.639-6.894-15.639-15.4 s7.006-15.404 15.639-15.404C202.415 295.2 210.5 302 210.5 310.556z" class="style0"/><path d="M103.79 478.851c0 8.507-7.002 15.402-15.639 15.402c-8.635 0-15.637-6.896-15.637-15.402 c0-8.508 7.002-15.405 15.637-15.405C95.741 463.4 103.8 470.3 103.8 478.851z" class="style0"/><path d="M215.185 424.995c0 8.508-7.002 15.41-15.635 15.41c-8.637 0-15.639-6.902-15.639-15.41 c0-8.502 7.002-15.402 15.639-15.402C207.138 409.6 215.2 416.5 215.2 424.995z" class="style0"/><path d="M254.153 293.624c0 8.508-7.002 15.404-15.639 15.404c-8.635 0-15.637-6.896-15.637-15.404 c0-8.504 7.002-15.404 15.637-15.404C246.104 278.2 254.2 285.1 254.2 293.624z" class="style0"/><path d="M253.499 592.491c0 8.508-7.004 15.403-15.639 15.403c-8.637 0-15.639-6.896-15.639-15.403 c0-8.506 7.002-15.404 15.639-15.404C245.448 577.1 253.5 584 253.5 592.491z" class="style0"/><path d="M418.263 23.329c0 8.508-7 15.404-15.637 15.404s-15.635-6.896-15.635-15.404 c0-8.508 6.997-15.404 15.635-15.404C410.214 7.9 418.3 14.8 418.3 23.329z" class="style0"/><path d="M290.296 281.032c0 8.508-7.002 15.408-15.639 15.408c-8.637 0-15.639-6.9-15.639-15.408 c0-8.504 7.002-15.4 15.639-15.4C282.245 265.6 290.3 272.5 290.3 281.032z" class="style0"/><path d="M390.419 360.062c0 8.508-7 15.409-15.637 15.409c-8.638 0-15.636-6.901-15.636-15.409 c0-8.503 6.998-15.398 15.636-15.398C382.37 344.7 390.4 351.6 390.4 360.062z" class="style0"/><path d="M657.808 184.567c0 6.99-5.598 12.656-12.51 12.656c-6.92 0-12.521-5.666-12.521-12.656 c0-6.99 5.602-12.656 12.521-12.656C652.21 171.9 657.8 177.6 657.8 184.567z" class="style0"/></g></svg>